<?xml version="1.0"?><svg width="640" height="480" xmlns="http://www.w3.org/2000/svg">
 <title>Blue cloud</title>
 <g>
  <title>Layer 1</title>
  <g id="layer1">
   <path fill="#3ba8ed" stroke="#00ffff" stroke-width="0" stroke-linejoin="round" stroke-miterlimit="4" stroke-dashoffset="0" id="path4952" d="m421.981232,112.227081c-31.385956,-5.592918 -63.148346,0.807632 -85.075562,14.71244c-11.456024,-9.157684 -26.96817,-16.225555 -45.57431,-19.540901c-47.884872,-8.532784 -97.214813,10.407883 -110.045593,42.253372c-0.942841,2.340012 -1.191071,4.693146 -1.696716,7.033554c-43.122665,-2.98114 -84.384247,14.97226 -95.96048,43.704376c-11.470444,28.469238 10.174866,57.579926 49.078857,69.549133c-2.114731,3.049713 -4.086502,6.191589 -5.437355,9.543976c-12.830605,31.84549 15.678368,64.581451 63.563347,73.114227c23.454163,4.180054 47.156586,1.725555 66.832352,-5.560516c10.843903,15.427948 31.061737,27.845093 57.713928,32.594116c38.026947,6.776459 76.614655,-3.957977 97.447327,-24.53241c8.438782,3.973022 17.818817,7.25946 28.384979,9.142639c47.884857,8.532776 97.108673,-10.427155 109.939545,-42.272644c6.451965,-16.013519 2.459656,-32.219025 -9.187256,-45.500488c11.526672,-7.30957 20.549255,-16.568665 24.969971,-27.540909c12.83075,-31.845856 -15.678284,-64.581833 -63.563171,-73.114639c-5.040741,-0.897827 -10.090027,-1.403625 -15.117523,-1.710495c2.979736,-27.965347 -24.046265,-54.350143 -66.272339,-61.874832z"/>
  </g>
 </g>
</svg>